<svg width="77" height="65" viewBox="0 0 77 65" fill="none" xmlns="http://www.w3.org/2000/svg">
<path d="M7.27 47.23V62.87H5.91V47.23H7.27ZM28.0963 58.314C28.0963 59.2887 27.8697 59.98 27.4163 60.388C26.9743 60.796 26.2377 61 25.2063 61H21.8063V49.1H25.0023C26.011 49.1 26.7477 49.304 27.2123 49.712C27.6883 50.12 27.9263 50.8 27.9263 51.752V52.721C27.9263 53.5937 27.6147 54.251 26.9913 54.693C27.728 55.101 28.0963 55.798 28.0963 56.784V58.314ZM26.4473 51.599C26.4473 51.1683 26.3453 50.8567 26.1413 50.664C25.9487 50.4713 25.637 50.375 25.2063 50.375H23.2853V54.132H25.2063C25.5577 54.132 25.8523 54.0187 26.0903 53.792C26.3283 53.5653 26.4473 53.265 26.4473 52.891V51.599ZM26.6173 56.631C26.6173 56.257 26.504 55.9623 26.2773 55.747C26.0507 55.5203 25.7503 55.407 25.3763 55.407H23.2853V59.725H25.3593C25.79 59.725 26.1073 59.6287 26.3113 59.436C26.5153 59.232 26.6173 58.9147 26.6173 58.484V56.631ZM33.384 59.759V50.341H31.854V49.1H36.393V50.341H34.863V59.759H36.393V61H31.854V59.759H33.384ZM42.5647 61V50.392H39.8617V49.1H46.7467V50.392H44.0437V61H42.5647ZM55.3663 58.11C55.3663 59.0733 55.1 59.7987 54.5673 60.286C54.046 60.762 53.2923 61 52.3063 61H49.8923V59.708H52.4763C52.8957 59.708 53.2357 59.5833 53.4963 59.334C53.757 59.0847 53.8873 58.7843 53.8873 58.433V56.665C53.8873 56.325 53.7967 56.053 53.6153 55.849C53.4453 55.6337 53.1847 55.526 52.8333 55.526H52.3233C51.4847 55.526 50.8217 55.2823 50.3343 54.795C49.847 54.2963 49.6033 53.5767 49.6033 52.636V51.99C49.6033 51.0267 49.864 50.307 50.3853 49.831C50.918 49.3437 51.6773 49.1 52.6633 49.1H55.0943V50.392H52.4933C52.074 50.392 51.734 50.5167 51.4733 50.766C51.2127 51.0153 51.0823 51.3157 51.0823 51.667V52.959C51.0823 53.3103 51.1957 53.605 51.4223 53.843C51.649 54.0697 51.9437 54.183 52.3063 54.183H52.8163C53.621 54.183 54.2443 54.4153 54.6863 54.88C55.1397 55.3447 55.3663 56.0473 55.3663 56.988V58.11ZM71.5346 47.23V62.87H70.1746V47.23H71.5346Z" fill="white"/>
<path d="M19.693 34.574C19.693 37.1747 19.0663 39.0703 17.813 40.261C16.5597 41.4203 14.523 42 11.703 42H5.687V38.475H12.126C13.3167 38.475 14.194 38.2087 14.758 37.676C15.322 37.112 15.604 36.2347 15.604 35.044V30.203C15.604 29.169 15.2907 28.3543 14.664 27.759C14.0373 27.1323 13.207 26.819 12.173 26.819H7.144V23.294H11.703C12.6743 23.294 13.489 22.9807 14.147 22.354C14.805 21.7273 15.134 20.897 15.134 19.863V16.009C15.134 14.8183 14.852 13.9567 14.288 13.424C13.7553 12.8913 12.8937 12.625 11.703 12.625H5.687V9.1H11.139C13.8023 9.1 15.8077 9.69533 17.155 10.886C18.5337 12.0453 19.223 13.894 19.223 16.432V19.393C19.223 21.8057 18.3613 23.623 16.638 24.845C18.6747 25.973 19.693 27.9 19.693 30.626V34.574ZM46.4378 34.01C46.4378 36.5793 45.7328 38.5533 44.3228 39.932C42.9128 41.3107 41.1425 42 39.0118 42H37.3668C35.2362 42 33.4658 41.3107 32.0558 39.932C30.6458 38.5533 29.9408 36.5793 29.9408 34.01V17.09C29.9408 14.4267 30.6458 12.437 32.0558 11.121C33.4972 9.77367 35.5808 9.1 38.3068 9.1H44.1818V12.672H37.8368C36.6775 12.672 35.7375 13.0167 35.0168 13.706C34.2962 14.3953 33.9358 15.2257 33.9358 16.197V21.32H38.5418C41.2365 21.32 43.2262 21.9153 44.5108 23.106C45.7955 24.2967 46.4378 26.208 46.4378 28.84V34.01ZM33.9358 34.903C33.9358 35.9057 34.2648 36.7517 34.9228 37.441C35.5808 38.1303 36.4738 38.475 37.6018 38.475H38.7768C39.9048 38.475 40.7978 38.1303 41.4558 37.441C42.1138 36.7517 42.4428 35.9057 42.4428 34.903V27.947C42.4428 26.9757 42.1452 26.2237 41.5498 25.691C40.9858 25.127 40.1398 24.845 39.0118 24.845H33.9358V34.903ZM63.2187 27.148C64.2213 25.7067 64.895 24.6883 65.2397 24.093C65.6157 23.4663 65.8663 22.8397 65.9917 22.213C66.117 21.5863 66.1797 20.6777 66.1797 19.487V16.197C66.1797 15.2257 65.8193 14.3953 65.0987 13.706C64.378 13.0167 63.438 12.672 62.2787 12.672H56.6387V9.1H61.8087C64.5347 9.1 66.6183 9.77367 68.0597 11.121C69.5323 12.437 70.2687 14.4267 70.2687 17.09V19.064C70.2687 20.6307 70.159 21.8997 69.9397 22.871C69.7203 23.8423 69.407 24.704 68.9997 25.456C68.5923 26.208 67.9187 27.2577 66.9787 28.605L60.0227 38.428H71.2087V42H55.6987V37.864L63.2187 27.148Z" fill="white"/>
</svg>
